<svg width="24" height="24" viewBox="0 0 24 24" fill="none" xmlns="http://www.w3.org/2000/svg">
<g clip-path="url(#clip0_442_847)">
<path d="M6.00028 15.4285C8.84059 15.4285 11.1431 14.2772 11.1431 12.8571C11.1431 11.4369 8.84059 10.2856 6.00028 10.2856C3.15996 10.2856 0.857422 11.4369 0.857422 12.8571C0.857422 14.2772 3.15996 15.4285 6.00028 15.4285Z" stroke="#EBAC00" stroke-width="2" stroke-linecap="round" stroke-linejoin="round"/>
<path d="M6.00028 19.2858C8.84059 19.2858 11.1431 18.1344 11.1431 16.7143V12.8572C11.1431 14.2773 8.84059 15.4286 6.00028 15.4286C3.15996 15.4286 0.857422 14.2773 0.857422 12.8572V16.7143C0.857422 18.1344 3.15996 19.2858 6.00028 19.2858Z" stroke="#EBAC00" stroke-width="2" stroke-linecap="round" stroke-linejoin="round"/>
<path d="M16.2864 19.2857C19.1268 19.2857 21.4293 18.1344 21.4293 16.7142C21.4293 15.2941 19.1268 14.1428 16.2864 14.1428C13.4461 14.1428 11.1436 15.2941 11.1436 16.7142C11.1436 18.1344 13.4461 19.2857 16.2864 19.2857Z" stroke="#EBAC00" stroke-width="2" stroke-linecap="round" stroke-linejoin="round"/>
<path d="M16.2864 23.1429C19.1268 23.1429 21.4293 21.9916 21.4293 20.5715V16.7144C21.4293 18.1345 19.1268 19.2858 16.2864 19.2858C13.4461 19.2858 11.1436 18.1345 11.1436 16.7144V20.5715C11.1436 21.9916 13.4461 23.1429 16.2864 23.1429Z" stroke="#EBAC00" stroke-width="2" stroke-linecap="round" stroke-linejoin="round"/>
<path d="M6.00028 23.1429C8.84059 23.1429 11.1431 21.9916 11.1431 20.5715V16.7144C11.1431 18.1345 8.84059 19.2858 6.00028 19.2858C3.15996 19.2858 0.857422 18.1345 0.857422 16.7144V20.5715C0.857422 21.9916 3.15996 23.1429 6.00028 23.1429Z" stroke="#EBAC00" stroke-width="2" stroke-linecap="round" stroke-linejoin="round"/>
<path d="M14.5713 9.42861L23.1427 0.857178" stroke="#EBAC00" stroke-width="2" stroke-linecap="round" stroke-linejoin="round"/>
<path d="M15.4284 2.57146C15.9018 2.57146 16.2856 2.1877 16.2856 1.71432C16.2856 1.24093 15.9018 0.857178 15.4284 0.857178C14.955 0.857178 14.5713 1.24093 14.5713 1.71432C14.5713 2.1877 14.955 2.57146 15.4284 2.57146Z" stroke="#EBAC00" stroke-width="2" stroke-linecap="round" stroke-linejoin="round"/>
<path d="M22.2859 9.42864C22.7592 9.42864 23.143 9.04488 23.143 8.5715C23.143 8.09812 22.7592 7.71436 22.2859 7.71436C21.8125 7.71436 21.4287 8.09812 21.4287 8.5715C21.4287 9.04488 21.8125 9.42864 22.2859 9.42864Z" stroke="#EBAC00" stroke-width="2" stroke-linecap="round" stroke-linejoin="round"/>
</g>
<defs>
<clipPath id="clip0_442_847">
<rect width="24" height="24" fill="white"/>
</clipPath>
</defs>
</svg>
