<svg width="14" height="13" viewBox="0 0 14 13" fill="none" xmlns="http://www.w3.org/2000/svg">
<path d="M8.25 0.207186L13.75 5.45719C13.9062 5.61344 14 5.80094 14 6.01969C14 6.20719 13.9062 6.39469 13.75 6.55094L8.25 11.8009C7.96875 12.0822 7.46875 12.0822 7.1875 11.7697C6.90625 11.4884 6.90625 10.9884 7.21875 10.7072L11.375 6.76969H0.75C0.3125 6.76969 0 6.42594 0 6.01969C0 5.58219 0.3125 5.26969 0.75 5.26969H11.375L7.21875 1.30094C6.90625 1.01969 6.90625 0.519686 7.1875 0.238436C7.46875 -0.0740645 7.9375 -0.0740645 8.25 0.207186Z" fill="white"/>
</svg>
