<svg width="24" height="25" viewBox="0 0 24 25" fill="none" xmlns="http://www.w3.org/2000/svg">
<path d="M9.42815 16.9642H2.57101C2.09763 16.9642 1.71387 16.5805 1.71387 16.1071V8.39279C1.71387 7.91941 2.09763 7.53564 2.57101 7.53564H9.42815C9.90154 7.53564 10.2853 7.91941 10.2853 8.39279V16.1071C10.2853 16.5805 9.90154 16.9642 9.42815 16.9642Z" stroke="#A8BCD4" stroke-width="2" stroke-linecap="round" stroke-linejoin="round"/>
<path d="M10.2852 12.25H17.1423" stroke="#A8BCD4" stroke-width="2" stroke-linecap="round" stroke-linejoin="round"/>
<path d="M17.1424 20.8216H15.4282C14.4814 20.8216 13.7139 20.0541 13.7139 19.1073V5.393C13.7139 4.44623 14.4814 3.67871 15.4282 3.67871H17.1424" stroke="#A8BCD4" stroke-width="2" stroke-linecap="round" stroke-linejoin="round"/>
<path d="M21.4283 23.3929H17.9997C17.5264 23.3929 17.1426 23.009 17.1426 22.5357V19.1071C17.1426 18.6338 17.5264 18.25 17.9997 18.25H21.4283C21.9016 18.25 22.2854 18.6338 22.2854 19.1071V22.5357C22.2854 23.009 21.9016 23.3929 21.4283 23.3929Z" stroke="#A8BCD4" stroke-width="2" stroke-linecap="round" stroke-linejoin="round"/>
<path d="M21.4283 14.8216H17.9997C17.5264 14.8216 17.1426 14.4378 17.1426 13.9644V10.5359C17.1426 10.0625 17.5264 9.67871 17.9997 9.67871H21.4283C21.9016 9.67871 22.2854 10.0625 22.2854 10.5359V13.9644C22.2854 14.4378 21.9016 14.8216 21.4283 14.8216Z" stroke="#A8BCD4" stroke-width="2" stroke-linecap="round" stroke-linejoin="round"/>
<path d="M21.4283 6.25003H17.9997C17.5264 6.25003 17.1426 5.86627 17.1426 5.39289V1.96432C17.1426 1.49093 17.5264 1.10718 17.9997 1.10718H21.4283C21.9016 1.10718 22.2854 1.49093 22.2854 1.96432V5.39289C22.2854 5.86627 21.9016 6.25003 21.4283 6.25003Z" stroke="#A8BCD4" stroke-width="2" stroke-linecap="round" stroke-linejoin="round"/>
</svg>
