<svg width="78" height="98" viewBox="0 0 78 98" fill="none" xmlns="http://www.w3.org/2000/svg">
<path d="M77.1147 60.3941H0.807226C0.807226 80.0298 16.038 96.1592 35.4765 97.8685C36.112 97.9343 36.7695 97.9781 37.4269 98C37.931 98 38.435 98 38.9391 98C52.3071 98 64.0535 91.2283 70.8471 80.9722C72.6003 78.3424 74.0466 75.4715 75.0766 72.4473C76.3915 68.656 77.0928 64.5799 77.0928 60.3503L77.1147 60.3941Z" fill="#003E99"/>
<path d="M0.807226 45.8865C0.807226 44.4182 1.99063 43.2348 3.45892 43.2348H12.0715C13.5398 43.2348 14.7232 44.4182 14.7232 45.8865V60.4599H0.807226V45.8865Z" fill="#C94D24"/>
<path d="M14.7244 31.9706C14.7244 30.5023 15.9078 29.3189 17.3761 29.3189H25.9887C27.457 29.3189 28.6404 30.5023 28.6404 31.9706V60.4599H14.7244V31.9706Z" fill="#D16947"/>
<path d="M28.6395 20.027C28.6395 18.5587 29.8229 17.3753 31.2912 17.3753H39.9038C41.372 17.3753 42.5554 18.5587 42.5554 20.027V60.4598H28.6395V20.027Z" fill="#2DD3CB"/>
<path d="M49.1953 39.9037C49.1953 38.4355 50.3787 37.252 51.847 37.252H60.4596C61.9279 37.252 63.1113 38.4355 63.1113 39.9037V60.438H49.1953V39.9037Z" fill="#95DA6D"/>
<path d="M63.1982 27.3246C63.1982 25.8563 64.3816 24.6729 65.8499 24.6729H74.4624C75.9307 24.6729 77.1141 25.8563 77.1141 27.3246V60.4599H63.1982V27.3246Z" fill="#4DAFEB"/>
<path d="M0.15019 31.9705L23.9278 9.13528C29.1216 4.13869 37.3835 4.22635 42.4678 9.33251L45.8207 12.6855C51.1022 17.967 59.7147 17.8355 64.8428 12.4006L76.3481 0.15019" stroke="#619DC2" stroke-width="0.3" stroke-linecap="round"/>
<path d="M20.6852 8.76272C22.5041 8.76272 23.9943 10.2529 23.9943 12.0719C23.9943 13.8908 22.5041 15.381 20.6852 15.381C18.8663 15.381 17.376 13.8908 17.376 12.0719C17.376 10.2529 18.8663 8.76272 20.6852 8.76272Z" fill="#024AC3"/>
<path d="M34.6003 2.14446C36.4192 2.14446 37.9094 3.63467 37.9094 5.4536C37.9094 7.27253 36.4192 8.76274 34.6003 8.76274C32.7813 8.76274 31.2911 7.27253 31.2911 5.4536C31.2911 3.63467 32.7813 2.14446 34.6003 2.14446Z" fill="#024AC3"/>
<path d="M56.4723 12.7513C58.2912 12.7513 59.7814 14.2415 59.7814 16.0604C59.7814 17.8793 58.2912 19.3695 56.4723 19.3695C54.6534 19.3695 53.1632 17.8793 53.1632 16.0604C53.1632 14.2415 54.6534 12.7513 56.4723 12.7513Z" fill="#024AC3"/>
<path d="M69.7303 3.45932C71.5493 3.45932 73.0395 4.94953 73.0395 6.76847C73.0395 8.5874 71.5493 10.0776 69.7303 10.0776C67.9114 10.0776 66.4212 8.5874 66.4212 6.76847C66.4212 4.94953 67.9114 3.45932 69.7303 3.45932Z" fill="#024AC3"/>
</svg>
