<svg width="22" height="20" viewBox="0 0 22 20" fill="none" xmlns="http://www.w3.org/2000/svg">
<path opacity="0.7" d="M2.0625 16.1562C2.0625 16.7578 2.49219 17.1875 3.09375 17.1875H20.9688C21.5273 17.1875 22 17.6602 22 18.2188C22 18.8203 21.5273 19.25 20.9688 19.25H3.09375C1.375 19.25 0 17.875 0 16.1562V1.03125C0 0.472656 0.429688 0 1.03125 0C1.58984 0 2.0625 0.472656 2.0625 1.03125V16.1562ZM14.7812 4.125H19.5938C20.1523 4.125 20.625 4.59766 20.625 5.15625V9.96875C20.625 10.5703 20.1523 11 19.5938 11C18.9922 11 18.5625 10.5703 18.5625 9.96875V7.64844L13.75 12.418C13.3633 12.8477 12.7188 12.8477 12.332 12.418L8.89453 9.02344L6.1875 11.7305C5.80078 12.1602 5.15625 12.1602 4.76953 11.7305C4.33984 11.3438 4.33984 10.6992 4.76953 10.2695L8.20703 6.83203C8.59375 6.44531 9.23828 6.44531 9.625 6.83203L13.0625 10.2695L17.1016 6.1875H14.7812C14.1797 6.1875 13.75 5.75781 13.75 5.15625C13.75 4.59766 14.1797 4.125 14.7812 4.125Z" fill="#F0FAFF"/>
</svg>
