<svg width="25" height="20" viewBox="0 0 25 20" fill="none" xmlns="http://www.w3.org/2000/svg">
<path opacity="0.7" d="M10 18.125C11.1328 18.125 12.2266 17.8906 13.2031 17.4609C13.5156 18.0469 13.8672 18.5938 14.2969 19.0234C12.9688 19.6484 11.5234 20 10 20C4.45312 20 0 15.5469 0 10C0 4.49219 4.45312 0 10 0C14.6484 0 18.5547 3.20312 19.6484 7.53906C19.5703 7.53906 19.4531 7.5 19.375 7.5C18.8281 7.5 18.2812 7.57812 17.7734 7.69531C16.7578 4.33594 13.6719 1.875 10 1.875C5.50781 1.875 1.875 5.54688 1.875 10C1.875 14.4922 5.50781 18.125 10 18.125ZM7.8125 13.75C7.8125 12.8906 8.32031 12.1484 9.02344 11.7969V4.6875C9.02344 4.17969 9.45312 3.75 9.96094 3.75C10.5078 3.75 10.8984 4.17969 10.8984 4.6875V11.7969C11.6406 12.1484 12.1875 12.8906 12.1875 13.75C12.1875 14.9609 11.1719 15.9375 10 15.9375C8.78906 15.9375 7.8125 14.9609 7.8125 13.75ZM7.5 6.25C7.5 6.95312 6.91406 7.5 6.25 7.5C5.54688 7.5 5 6.95312 5 6.25C5 5.58594 5.54688 5 6.25 5C6.91406 5 7.5 5.58594 7.5 6.25ZM3.125 10C3.125 9.33594 3.67188 8.75 4.375 8.75C5.03906 8.75 5.625 9.33594 5.625 10C5.625 10.7031 5.03906 11.25 4.375 11.25C3.67188 11.25 3.125 10.7031 3.125 10ZM15 6.25C15 6.95312 14.4141 7.5 13.75 7.5C13.0469 7.5 12.5 6.95312 12.5 6.25C12.5 5.58594 13.0469 5 13.75 5C14.4141 5 15 5.58594 15 6.25ZM13.75 14.375C13.75 11.2891 16.25 8.75 19.375 8.75C22.4609 8.75 25 11.2891 25 14.375C25 17.5 22.4609 20 19.375 20C16.25 20 13.75 17.5 13.75 14.375ZM20.625 11.2109L16.875 14.0234C16.7188 14.1406 16.6406 14.3359 16.7188 14.5312C16.7969 14.7266 16.9531 14.8438 17.1875 14.8438H18.5547L17.3828 16.9922C17.2656 17.1875 17.3047 17.4219 17.5 17.5391C17.6562 17.6953 17.8906 17.6953 18.0859 17.5781L21.8359 14.7656C21.9922 14.6484 22.0703 14.4531 21.9922 14.2578C21.9141 14.0625 21.7578 13.9062 21.5625 13.9062H20.1562L21.3281 11.7969C21.4453 11.6016 21.4062 11.3672 21.2109 11.2109C21.0547 11.0938 20.8203 11.0547 20.625 11.2109Z" fill="#F0FAFF"/>
</svg>
