<svg width="16" height="16" viewBox="0 0 16 16" fill="none" xmlns="http://www.w3.org/2000/svg">
<path d="M4.89397 12.0287L3.9283 11.0349C3.66266 10.7974 3.56891 10.4099 3.65954 10.0567C3.75329 9.77859 3.8783 9.41607 4.05643 9.00043H0.750032C0.480645 9.00043 0.231696 8.85667 0.0983146 8.62228C-0.0350977 8.3879 -0.0325665 8.10038 0.104909 7.86912L1.74477 5.10337C2.14978 4.41897 2.88544 3.97207 3.68142 3.97207H6.25028C6.32529 3.87519 6.40029 3.75956 6.47529 3.64706C9.03479 -0.12718 12.8475 -0.254435 15.1226 0.164865C15.4882 0.231712 15.7695 0.513474 15.8351 0.876929C16.2539 3.15328 16.1289 6.96596 12.3537 9.52545C12.2443 9.60045 12.0974 9.67546 12.0005 9.72233V12.3193C12.0005 13.1162 11.5818 13.8506 10.8974 14.2569L8.13162 15.8945C7.90036 16.032 7.61285 16.0351 7.37846 15.9039C7.14408 15.7695 7.00032 15.5195 7.00032 15.2507V11.9006C6.55967 12.0506 6.17528 12.1787 5.88464 12.2725C5.53463 12.385 5.15336 12.2881 4.89397 12.0287ZM12.0005 5.22213C12.6912 5.22213 13.2506 4.69085 13.2506 3.97207C13.2506 3.30954 12.6912 2.72201 12.0005 2.72201C11.3099 2.72201 10.7505 3.30954 10.7505 3.97207C10.7505 4.69085 11.3099 5.22213 12.0005 5.22213Z" fill="#343441"/>
</svg>
