<svg width="12" height="16" viewBox="0 0 12 16" fill="none" xmlns="http://www.w3.org/2000/svg">
<path d="M7.51557 6.99988H10.9999C11.4155 6.99988 11.7905 7.25925 11.9093 7.64675C12.0811 8.03737 11.9718 8.47798 11.6593 8.75298L3.65938 15.7529C3.30626 16.0591 2.78971 16.0841 2.41221 15.8091C2.03441 15.5341 1.89691 15.0341 2.08097 14.606L4.48437 8.99985H0.971923C0.583492 8.99985 0.210466 8.74048 0.0639373 8.35299C-0.0825916 7.96237 0.0280129 7.52175 0.341621 7.24675L8.34056 0.247424C8.69368 -0.0600096 9.2093 -0.0834153 9.58742 0.19105C9.96554 0.465608 10.103 0.964662 9.91866 1.39403L7.51557 6.99988Z" fill="#343441"/>
</svg>
