<svg width="25" height="25" viewBox="0 0 25 25" fill="none" xmlns="http://www.w3.org/2000/svg">
<path opacity="0.7" d="M9.69727 8.92188L6.32227 5.54688C6.08789 5.35938 5.99414 5.07812 5.99414 4.75C5.99414 4.1875 6.46289 3.625 7.11914 3.625C7.40039 3.625 7.68164 3.76562 7.86914 4L9.36914 5.45312V1.375C9.36914 0.765625 9.83789 0.25 10.4941 0.25C11.1035 0.25 11.6191 0.765625 11.6191 1.375V5.45312L13.0723 4C13.2598 3.76562 13.541 3.625 13.8691 3.625C14.4316 3.625 14.9941 4.14062 14.9941 4.75C14.9941 5.07812 14.8535 5.35938 14.6191 5.54688L11.2441 8.92188C11.1504 9.0625 10.8691 9.25 10.4941 9.25C10.0723 9.25 9.79102 9.0625 9.69727 8.92188ZM11.2441 15.5781L14.6191 19C14.8535 19.1875 14.9941 19.4688 14.9941 19.75C14.9941 20.0781 14.7129 20.875 13.8691 20.875C13.541 20.875 13.2598 20.7812 13.0723 20.5469L11.6191 19.0938V23.125C11.6191 23.7812 11.1035 24.25 10.4941 24.25C9.83789 24.25 9.36914 23.7812 9.36914 23.125V19.0938L7.86914 20.5469C7.68164 20.7812 7.40039 20.875 7.11914 20.875C6.50977 20.875 5.99414 20.4062 5.99414 19.75C5.99414 19.4688 6.08789 19.1875 6.32227 19L9.69727 15.625C9.97852 15.2969 10.3066 15.25 10.4941 15.25C10.6348 15.25 10.9629 15.2969 11.2441 15.5781ZM19.8691 11.125C20.4785 11.125 20.9941 11.6406 20.9941 12.25C20.9941 12.9062 20.4785 13.375 19.8691 13.375H1.11914C0.462891 13.375 -0.00585938 12.8125 -0.00585938 12.25C-0.00585938 11.6406 0.462891 11.125 1.11914 11.125H19.8691Z" fill="#F0FAFF"/>
</svg>
