<svg width="16" height="24" viewBox="0 0 16 24" fill="none" xmlns="http://www.w3.org/2000/svg">
<path d="M8 15.5C8.414 15.5 8.75 15.836 8.75 16.25C8.75 16.664 8.414 17 8 17C7.586 17 7.25 16.664 7.25 16.25C7.25 15.836 7.586 15.5 8 15.5ZM8 7C9.657 7 11 8.343 11 10C11 11.0825 10.6235 11.645 9.663 12.4615C8.69953 13.28 8.5 13.6485 8.5 14.5H7.5C7.5 13.263 7.89353 12.6525 9.01553 11.6995C9.774 11.055 10 10.717 10 10C10 8.895 9.105 8 8 8C6.895 8 6 8.895 6 10V10.5H5V10C5 8.343 6.343 7 8 7Z" fill="#222530"/>
</svg>
