<svg width="553" height="1175" viewBox="0 0 553 1175" fill="none" xmlns="http://www.w3.org/2000/svg">
<path d="M463 0C465.147 1.02838e-08 467.181 0.483731 469 1.34766V0C480.031 1.31544e-07 490.954 2.17314 501.146 6.39453L502.098 6.7959C511.914 11.0041 520.84 17.0471 528.396 24.6035C536.197 32.4036 542.384 41.6632 546.605 51.8545L546.996 52.8125C550.961 62.7289 553 73.3139 553 84L552.993 85.0342C552.862 95.7132 550.695 106.273 546.605 116.146C542.384 126.337 536.197 135.597 528.396 143.397C520.84 150.954 511.914 156.996 502.098 161.204L501.146 161.605C492.009 165.39 482.284 167.526 472.421 167.928C471.954 167.975 471.48 168 471 168H87C85.9702 168 84.9665 167.888 84 167.677V167.728C76.6103 167.728 69.293 169.183 62.4658 172.011L61.8271 172.28C55.2514 175.099 49.271 179.147 44.209 184.209L43.7227 184.702C38.7262 189.823 34.7503 195.852 32.0107 202.466L31.75 203.106C29.0935 209.75 27.7275 216.841 27.7275 224L27.7314 224.692C27.8195 231.846 29.2712 238.92 32.0107 245.534C34.8387 252.361 38.9836 258.566 44.209 263.791C49.4344 269.016 55.6385 273.161 62.4658 275.989C68.0781 278.314 74.0218 279.709 80.0645 280.133C80.6971 280.045 81.3433 280 82 280H471C473.183 280 475.249 280.5 477.09 281.391C485.346 282.19 493.454 284.209 501.146 287.395L502.098 287.796C511.914 292.004 520.84 298.047 528.396 305.604C536.197 313.404 542.384 322.663 546.605 332.854L546.996 333.812C550.961 343.729 553 354.314 553 365L552.993 366.034C552.862 376.713 550.695 387.273 546.605 397.146C542.384 407.337 536.197 416.597 528.396 424.397C520.84 431.954 511.914 437.996 502.098 442.204L501.146 442.605C492.009 446.39 482.284 448.526 472.421 448.928C471.954 448.975 471.48 449 471 449H87C86.0983 449 85.2166 448.914 84.3623 448.751C77.5307 448.95 70.7875 450.391 64.4648 453.01L63.8271 453.279C57.2511 456.098 51.2712 460.147 46.209 465.209C40.9835 470.434 36.8378 476.637 34.0098 483.465L33.749 484.106C31.0925 490.75 29.7266 497.841 29.7266 505L29.7305 505.692C29.8185 512.847 31.2701 519.921 34.0098 526.535C36.8378 533.363 40.9835 539.566 46.209 544.791C51.4344 550.016 57.6375 554.162 64.4648 556.99C71.2923 559.818 78.6101 561.273 86 561.273V561.322C86.9665 561.111 87.9702 561 89 561H471C471.48 561 471.954 561.024 472.421 561.071C482.284 561.473 492.009 563.61 501.146 567.395L502.098 567.796C511.914 572.004 520.84 578.047 528.396 585.604C536.197 593.404 542.384 602.663 546.605 612.854L546.996 613.812C550.961 623.729 553 634.314 553 645L552.993 646.034C552.862 656.713 550.695 667.273 546.605 677.146C542.384 687.337 536.197 696.597 528.396 704.397C520.84 711.954 511.914 717.996 502.098 722.204L501.146 722.605C490.954 726.827 480.031 729 469 729H87C86.6637 729 86.3303 728.986 86 728.963V729.727C78.6101 729.727 71.2923 731.182 64.4648 734.01L63.8271 734.279C57.2511 737.098 51.2712 741.147 46.209 746.209C40.9835 751.434 36.8378 757.637 34.0098 764.465L33.749 765.106C31.0925 771.75 29.7266 778.841 29.7266 786L29.7305 786.692C29.8185 793.847 31.2701 800.921 34.0098 807.535C36.8378 814.363 40.9835 820.566 46.209 825.791C51.4344 831.016 57.6375 835.162 64.4648 837.99C71.2923 840.818 78.6101 842.273 86 842.273V842.322C86.9665 842.111 87.9702 842 89 842H465C466.39 842 467.732 842.204 469 842.581V842C480.031 842 490.954 844.173 501.146 848.395L502.098 848.796C511.914 853.004 520.84 859.047 528.396 866.604C536.197 874.404 542.384 883.663 546.605 893.854L546.996 894.812C550.961 904.729 553 915.314 553 926L552.993 927.034C552.862 937.713 550.695 948.273 546.605 958.146C542.384 968.337 536.197 977.597 528.396 985.397C520.84 992.954 511.914 998.996 502.098 1003.2L501.146 1003.61C490.954 1007.83 480.031 1010 469 1010V1009.86C468.347 1009.95 467.679 1010 467 1010H344C343.343 1010 342.697 1009.95 342.064 1009.87C336.022 1010.29 330.078 1011.69 324.466 1014.01L323.827 1014.28C317.251 1017.1 311.271 1021.15 306.209 1026.21L305.723 1026.7C300.726 1031.82 296.75 1037.85 294.011 1044.47L293.75 1045.11C291.295 1051.24 289.943 1057.77 289.752 1064.37C289.914 1065.22 290 1066.1 290 1067V1161C290 1168.73 283.732 1175 276 1175C268.268 1175 262 1168.73 262 1161V1067C262 1066.66 262.013 1066.33 262.036 1066H262C262 1055.31 264.039 1044.73 268.004 1034.81L268.395 1033.85C272.616 1023.66 278.803 1014.4 286.604 1006.6C294.16 999.047 303.086 993.004 312.902 988.796L313.854 988.395C322.991 984.61 332.715 982.473 342.578 982.071C343.046 982.024 343.52 982 344 982H467C467.936 982 468.85 982.092 469.734 982.268C476.874 982.174 483.933 980.723 490.534 977.989C497.361 975.161 503.566 971.016 508.791 965.791C514.016 960.566 518.161 954.361 520.989 947.534C523.729 940.92 525.181 933.846 525.269 926.692L525.272 926C525.272 918.841 523.907 911.75 521.25 905.106L520.989 904.466C518.25 897.852 514.274 891.823 509.277 886.702L508.791 886.209C503.729 881.147 497.749 877.099 491.173 874.28L490.534 874.011C483.707 871.183 476.39 869.728 469 869.728V869.418C467.732 869.795 466.39 870 465 870H89C87.9702 870 86.9665 869.888 86 869.677V870C74.969 870 64.0458 867.827 53.8545 863.605L52.9023 863.204C43.0865 858.996 34.1599 852.954 26.6035 845.397C18.8035 837.597 12.6159 828.337 8.39453 818.146C4.3051 808.273 2.13831 797.713 2.00684 787.034L2 786C2 775.314 4.03871 764.729 8.00391 754.812L8.39453 753.854C12.6159 743.663 18.8035 734.404 26.6035 726.604C34.16 719.047 43.0863 713.004 52.9023 708.796L53.8545 708.395C62.658 704.748 72.0075 702.63 81.501 702.121C83.1891 701.399 85.0479 701 87 701H469C469.842 701 470.667 701.074 471.469 701.217C478.015 700.929 484.468 699.502 490.534 696.989C497.361 694.161 503.566 690.016 508.791 684.791C514.016 679.566 518.161 673.361 520.989 666.534C523.729 659.92 525.181 652.846 525.269 645.692L525.272 645C525.272 637.841 523.907 630.75 521.25 624.106L520.989 623.466C518.25 616.852 514.274 610.823 509.277 605.702L508.791 605.209C503.729 600.147 497.749 596.099 491.173 593.28L490.534 593.011C484.922 590.686 478.978 589.29 472.935 588.866C472.302 588.954 471.656 589 471 589H89C87.9702 589 86.9665 588.888 86 588.677V589C74.969 589 64.0458 586.827 53.8545 582.605L52.9023 582.204C43.0865 577.996 34.1599 571.954 26.6035 564.397C18.8035 556.597 12.6159 547.337 8.39453 537.146C4.3051 527.273 2.13831 516.713 2.00684 506.034L2 505C2 494.314 4.03871 483.729 8.00391 473.812L8.39453 472.854C12.6159 462.663 18.8035 453.404 26.6035 445.604C34.16 438.047 43.0863 432.004 52.9023 427.796L53.8545 427.395C64.0458 423.173 74.969 421 86 421V421.036C86.3303 421.013 86.6637 421 87 421H471C471.656 421 472.302 421.045 472.935 421.133C478.978 420.709 484.922 419.314 490.534 416.989C497.361 414.161 503.566 410.016 508.791 404.791C514.016 399.566 518.161 393.361 520.989 386.534C523.729 379.92 525.181 372.846 525.269 365.692L525.272 365C525.272 357.841 523.907 350.75 521.25 344.106L520.989 343.466C518.25 336.852 514.274 330.823 509.277 325.702L508.791 325.209C503.729 320.147 497.749 316.099 491.173 313.28L490.534 313.011C483.707 310.183 476.39 308.728 469 308.728V308H82C81.52 308 81.0457 307.975 80.5781 307.928C70.7152 307.526 60.9907 305.39 51.8545 301.605L50.9023 301.204C41.0865 296.996 32.1599 290.954 24.6035 283.397C16.8035 275.597 10.6159 266.337 6.39453 256.146C2.3051 246.273 0.138315 235.713 0.00683594 225.034L0 224C1.2735e-07 213.314 2.03871 202.729 6.00391 192.812L6.39453 191.854C10.6159 181.663 16.8035 172.404 24.6035 164.604C32.16 157.047 41.0863 151.004 50.9023 146.796L51.8545 146.395C62.0458 142.173 72.969 140 84 140V140.322C84.9665 140.111 85.9702 140 87 140H471C471.656 140 472.302 140.045 472.935 140.133C478.978 139.709 484.922 138.314 490.534 135.989C497.361 133.161 503.566 129.016 508.791 123.791C514.016 118.566 518.161 112.361 520.989 105.534C523.729 98.9203 525.181 91.8464 525.269 84.6924L525.272 84C525.272 76.841 523.907 69.7498 521.25 63.1064L520.989 62.4658C518.25 55.8519 514.274 49.8231 509.277 44.7021L508.791 44.209C503.729 39.1469 497.749 35.0994 491.173 32.2803L490.534 32.0107C483.707 29.1829 476.39 27.7275 469 27.7275V26.6514C467.181 27.5154 465.147 28 463 28H284C276.268 28 270 21.732 270 14C270 6.26801 276.268 1.66467e-06 284 0H463Z" fill="url(#paint0_linear_5_9)"/>
<defs>
<linearGradient id="paint0_linear_5_9" x1="276.5" y1="0" x2="276.5" y2="1175" gradientUnits="userSpaceOnUse">
<stop stop-color="#EBF8FF"/>
<stop offset="1" stop-color="#003E99"/>
</linearGradient>
</defs>
</svg>
