<svg width="11" height="12" viewBox="0 0 11 12" fill="none" xmlns="http://www.w3.org/2000/svg">
<path d="M0 6.63757V5.44154C0 4.38512 0.225719 3.44834 0.677213 2.63111C1.12871 1.81388 1.76489 1.17597 2.58579 0.69759C3.40668 0.239142 4.39179 0 5.5 0C7.20336 0 8.5373 0.518285 9.52238 1.53484C10.5075 2.5514 11 3.86687 11 5.44154V6.63757C11 8.21224 10.5075 9.50786 9.54292 10.5045C8.57837 11.521 7.24439 12.0194 5.54102 11.9994C3.83766 11.9994 2.48318 11.5011 1.4981 10.5045C0.513021 9.48793 0.0204799 8.19231 0.0204799 6.63757H0ZM2.75 5.44154V6.63757C2.75 7.55446 2.97574 8.29198 3.44776 8.88995C3.91977 9.48793 4.59703 9.78682 5.52054 9.78682C6.44405 9.78682 7.10075 9.48793 7.55224 8.88995C8.00374 8.29198 8.20893 7.53453 8.22946 6.63757V5.44154C8.22946 4.54458 7.98322 3.80707 7.55224 3.18916C7.10075 2.57125 6.42351 2.27232 5.5 2.25239C4.59701 2.25239 3.91977 2.57125 3.44776 3.18916C2.99626 3.80707 2.75 4.54458 2.75 5.44154Z" fill="white"/>
</svg>
