<svg width="18" height="23" viewBox="0 0 18 23" fill="none" xmlns="http://www.w3.org/2000/svg">
<path d="M3.36888 0.020142V23H0V0.020142H3.36888ZM7.247 23H1.72362V19.9615H7.05115C8.75518 19.9615 10.1654 19.6396 11.3014 18.9755C12.4374 18.3316 13.2797 17.3656 13.8477 16.0979C14.4157 14.8302 14.6899 13.2808 14.6899 11.4698C14.6899 9.65877 14.4157 8.14966 13.8477 6.88195C13.2992 5.63436 12.457 4.66839 11.3602 4.02448C10.2633 3.38056 8.89229 3.0385 7.26661 3.0385H1.60611V0H7.48206C9.67575 0 11.556 0.462923 13.123 1.36843C14.6899 2.27394 15.9042 3.60194 16.7465 5.31234C17.5887 7.02274 18 9.07522 18 11.4698C18 13.8644 17.5691 15.9168 16.7269 17.6474C15.8847 19.3779 14.6507 20.6859 13.0642 21.6115C11.4581 22.5372 9.51903 23 7.247 23Z" fill="white"/>
</svg>
