<svg width="16" height="23" viewBox="0 0 16 23" fill="none" xmlns="http://www.w3.org/2000/svg">
<path d="M8 23C6.31579 23 4.88036 22.549 3.67461 21.6471C2.46887 20.7451 1.56936 19.4314 0.937782 17.7255C0.306202 16.0196 0 13.9412 0 11.5098C0 9.07844 0.325359 7.01964 0.956939 5.29415C1.58852 3.56866 2.50717 2.25491 3.69377 1.35295C4.88038 0.450986 6.33493 0 8 0C9.66507 0 11.1196 0.450986 12.3254 1.35295C13.5311 2.25491 14.4306 3.56866 15.0622 5.29415C15.6938 7.01964 16 9.07844 16 11.5098C16 13.9412 15.6938 16.0196 15.0622 17.7255C14.4306 19.4314 13.5311 20.7451 12.3254 21.6471C11.1388 22.549 9.68419 23 7.98084 23H8ZM8 20.1177C9.01436 20.1177 9.87561 19.7843 10.5837 19.1177C11.2919 18.451 11.8278 17.4706 12.1914 16.1765C12.555 14.8824 12.7464 13.3334 12.7464 11.5294C12.7464 9.72552 12.555 8.15688 12.1914 6.86276C11.8278 5.56864 11.2727 4.58824 10.5837 3.92158C9.87561 3.2353 9.01436 2.90193 8 2.90193C6.4689 2.90193 5.30144 3.64707 4.47847 5.15688C3.6555 6.66669 3.23446 8.78434 3.23446 11.5294C3.23446 13.353 3.42586 14.902 3.7895 16.1765C4.15314 17.4706 4.70812 18.451 5.41625 19.1177C6.12439 19.7843 6.98564 20.1177 8 20.1177Z" fill="white"/>
</svg>
