<svg width="17" height="23" viewBox="0 0 17 23" fill="none" xmlns="http://www.w3.org/2000/svg">
<path d="M8.58018 23C6.87617 23 5.39268 22.7459 4.12971 22.2183C2.86674 21.6907 1.88445 20.9481 1.1828 19.971C0.481155 18.994 0.0801886 17.8215 0 16.4732H3.46818C3.54837 17.2744 3.80897 17.9584 4.27005 18.486C4.73114 19.0136 5.3526 19.4239 6.09435 19.678C6.83609 19.932 7.65802 20.0688 8.56014 20.0688C9.54245 20.0688 10.4045 19.9124 11.1663 19.6193C11.9281 19.3262 12.5295 18.8963 12.9705 18.3492C13.4115 17.802 13.6321 17.1571 13.6321 16.4341C13.6321 15.7697 13.4316 15.2421 13.0507 14.8122C12.6698 14.4019 12.1486 14.0501 11.487 13.7765C10.8255 13.5029 10.0837 13.2684 9.28184 13.0535L6.59553 12.3305C4.75119 11.8419 3.28773 11.1385 2.22523 10.181C1.16274 9.22348 0.621457 7.97276 0.621457 6.429C0.621457 5.13929 0.982333 4.02548 1.68398 3.04842C2.38563 2.07136 3.36794 1.34829 4.59081 0.801136C5.81369 0.273524 7.19694 0 8.72052 0C10.2441 0 11.6474 0.273524 12.8302 0.801136C14.013 1.32875 14.9552 2.0713 15.6368 2.98974C16.3184 3.90817 16.6993 4.96351 16.7193 6.15552H13.3714C13.2512 5.11984 12.77 4.31857 11.908 3.75187C11.046 3.18518 9.96343 2.89206 8.64031 2.89206C7.71815 2.89206 6.91628 3.02891 6.21463 3.32202C5.53302 3.61514 4.99174 4.00592 4.61085 4.49445C4.22995 5.00252 4.04953 5.56922 4.04953 6.21408C4.04953 6.91756 4.27005 7.48425 4.71109 7.91415C5.15213 8.3636 5.6934 8.69586 6.33491 8.94989C6.97641 9.20393 7.59787 9.41889 8.17924 9.57522L10.4045 10.1614C11.1262 10.3373 11.888 10.5718 12.6497 10.8844C13.4115 11.1971 14.1332 11.5683 14.7948 12.0569C15.4564 12.5454 15.9976 13.1513 16.3986 13.8547C16.7995 14.5778 17 15.4375 17 16.4341C17 17.6847 16.6592 18.7986 15.9976 19.7757C15.3361 20.7527 14.3738 21.5344 13.1109 22.1011C11.8479 22.6678 10.3243 22.9413 8.5401 22.9413L8.58018 23Z" fill="white"/>
</svg>
