<svg width="16" height="23" viewBox="0 0 16 23" fill="none" xmlns="http://www.w3.org/2000/svg">
<path d="M7.99015 23C6.41574 23 5.03815 22.7255 3.83766 22.1961C2.63717 21.6667 1.69247 20.902 1.02335 19.9608C0.334542 19.0196 0 17.9411 0 16.7255C0 15.7843 0.196778 14.9216 0.590382 14.1177C0.983985 13.3138 1.53504 12.6471 2.20417 12.1177C2.89298 11.5882 3.66053 11.2549 4.50678 11.098V10.9607C3.38501 10.6862 2.49941 10.098 1.8106 9.15684C1.1218 8.23527 0.787195 7.17646 0.787195 5.98038C0.787195 4.7843 1.10208 3.80389 1.71217 2.90193C2.32225 1.99996 3.18822 1.29405 4.27063 0.784243C5.35304 0.274438 6.59284 0 7.97045 0C9.34806 0 10.5683 0.254831 11.6507 0.784243C12.7331 1.29405 13.5793 1.99996 14.2091 2.90193C14.8192 3.80389 15.1341 4.82351 15.1341 5.98038C15.1341 7.13724 14.7995 8.23527 14.1107 9.15684C13.4416 10.0784 12.5363 10.6862 11.4539 10.9607V11.098C12.3001 11.2549 13.0676 11.5882 13.7564 12.1177C14.4452 12.6471 14.9766 13.3138 15.3899 14.1177C15.7835 14.9216 16 15.7843 16 16.7255C16 17.9411 15.6655 19.0196 14.9767 19.9608C14.2878 20.902 13.3432 21.6471 12.1427 22.1961C10.9422 22.7451 9.56458 23 8.00985 23H7.99015ZM7.99015 20.2353C8.91512 20.2353 9.72203 20.0784 10.4108 19.7843C11.0996 19.4706 11.631 19.0392 11.9852 18.4902C12.3591 17.9216 12.5363 17.2745 12.5363 16.5294C12.5363 15.7451 12.3395 15.0589 11.9459 14.4706C11.5523 13.8824 11.0012 13.4117 10.3321 13.0588C9.64329 12.7059 8.87576 12.5295 7.99015 12.5295C7.10454 12.5295 6.31737 12.7058 5.62856 13.0392C4.93976 13.3725 4.3887 13.8432 4.01477 14.451C3.64085 15.0588 3.42433 15.7451 3.42433 16.5294C3.42433 17.2745 3.60145 17.9216 3.97538 18.4902C4.3493 19.0588 4.8807 19.4902 5.54983 19.7843C6.23863 20.098 7.04548 20.2353 7.97045 20.2353H7.99015ZM7.99015 9.82356C8.738 9.82356 9.38746 9.66662 9.97787 9.3725C10.5486 9.07838 11.0209 8.6471 11.3554 8.11769C11.69 7.58828 11.8671 6.9608 11.8671 6.25492C11.8671 5.54903 11.7097 4.94118 11.3751 4.41177C11.0406 3.88236 10.5879 3.49021 10.0172 3.19609C9.44648 2.90198 8.7577 2.76466 8.00985 2.76466C7.262 2.76466 6.5535 2.90198 5.96309 3.19609C5.37269 3.49021 4.92004 3.90197 4.60516 4.41177C4.29027 4.94118 4.11315 5.54903 4.11315 6.25492C4.11315 6.9608 4.27059 7.58828 4.60516 8.11769C4.93972 8.6471 5.39237 9.05878 5.96309 9.3725C6.53382 9.68623 7.2226 9.82356 7.97045 9.82356H7.99015Z" fill="white"/>
</svg>
